<?xml version="1.0" encoding="UTF-8"?>
<!DOCTYPE svg PUBLIC "-//W3C//DTD SVG 1.1//EN" "http://www.w3.org/Graphics/SVG/1.1/DTD/svg11.dtd">
<svg version="1.1" xmlns="http://www.w3.org/2000/svg" xmlns:xlink="http://www.w3.org/1999/xlink" x="0" y="0" width="1993" height="505" viewBox="0, 0, 1993, 505">
  <g id="Layer_1">
    <path d="M1992.948,504.896 L29.515,504.896 L29.515,37.975 L1992.948,37.975 z" fill="#FFCB09"/>
    <g>
      <path d="M1949.445,460.728 L731.01,460.728 L731.01,7.307 L1949.445,7.307 z" fill="#FFFFFF"/>
      <path d="M1949.445,460.728 L731.01,460.728 L731.01,7.307 L1949.445,7.307 z" fill-opacity="0" stroke="#F15D21" stroke-width="14.4"/>
    </g>
    <g>
      <path d="M719.917,460.728 L0.552,460.728 L0.552,7.307 L719.917,7.307 z" fill="#F15D21"/>
      <path d="M719.917,460.728 L0.552,460.728 L0.552,7.307 L719.917,7.307 z" fill-opacity="0" stroke="#F15D21" stroke-width="14.4"/>
    </g>
    <path d="M102.53,323.472 L198.884,323.472 L198.884,293.519 L180.119,293.519 L180.119,227.479 C180.119,203.3 195.637,186.339 212.598,186.339 C219.815,186.339 225.228,188.504 229.198,192.113 C234.611,197.526 236.776,206.548 236.776,217.735 L236.776,293.519 L217.65,293.519 L217.65,323.472 L314.004,323.472 L314.004,293.519 L289.825,293.519 L289.825,210.517 C289.825,175.512 274.668,150.973 238.22,150.973 C207.185,150.973 188.78,170.46 176.871,198.969 L176.871,154.582 L102.53,154.582 L102.53,184.534 L127.431,184.534 L127.431,293.519 L102.53,293.519 z" fill="#FFFFFF"/>
    <path d="M349.731,318.419 C333.13,318.419 321.943,331.772 321.943,348.733 C321.943,370.386 337.822,386.264 368.496,386.264 C407.471,386.264 426.958,359.559 444.28,318.78 L502.02,184.534 L522.59,184.534 L522.59,154.582 L448.611,154.582 L448.611,184.534 L469.902,184.534 L435.98,272.949 L398.088,184.534 L423.71,184.534 L423.71,154.582 L317.974,154.582 L317.974,184.534 L340.348,184.534 L408.193,326.359 C397.727,351.62 388.705,358.477 373.909,360.281 C375.714,356.672 376.796,351.62 376.796,346.929 C376.796,332.854 368.135,318.419 349.731,318.419 z" fill="#FFFFFF"/>
    <path d="M614.253,327.08 C656.836,327.08 682.098,301.819 690.037,265.371 L661.889,265.371 C655.032,284.858 641.68,296.406 622.192,296.406 C594.044,296.406 579.609,273.31 579.609,237.944 C579.609,198.969 597.292,176.595 621.11,176.595 C635.184,176.595 643.845,181.647 648.897,188.143 C641.319,191.03 633.74,199.33 633.74,210.878 C633.74,224.592 643.123,236.501 660.806,236.501 C679.571,236.501 689.676,223.509 689.676,205.465 C689.676,179.843 664.776,150.612 616.057,150.612 C561.204,150.612 522.951,187.421 522.951,241.914 C522.951,292.797 556.874,327.08 614.253,327.08 z" fill="#FFFFFF"/>
    <path d="M880.189,234.184 L731.386,0.104 L731.387,468.263 z" fill="#F15D21"/>
    <path d="M944.567,336.968 L1100.345,336.968 L1100.345,296.971 L1008.622,296.971 L1042.905,270.507 C1080.196,241.637 1098.24,224.195 1098.24,189.009 L1098.24,188.408 C1098.24,149.012 1069.37,123.45 1025.764,123.45 C988.172,123.45 968.023,138.787 947.273,167.056 L979.752,193.219 C995.39,173.973 1006.517,164.951 1022.756,164.951 C1039.297,164.951 1051.025,174.574 1051.025,192.317 C1051.025,209.76 1040.8,221.187 1014.637,242.84 L944.567,300.279 z" fill="#F15D21"/>
    <path d="M1208.006,343.584 C1256.424,343.584 1288,315.316 1288,270.808 L1288,270.206 C1288,222.691 1255.221,202.843 1214.322,202.843 C1202.593,202.843 1195.075,204.346 1186.654,206.452 L1189.06,170.063 L1278.678,170.063 L1278.678,129.465 L1149.364,129.465 L1143.349,233.216 L1170.114,250.96 C1180.038,246.749 1192.067,243.141 1205.3,243.141 C1227.253,243.141 1242.59,253.666 1242.59,271.71 L1242.59,272.311 C1242.59,290.957 1229.057,301.482 1207.405,301.482 C1188.759,301.482 1173.121,293.062 1157.183,278.627 L1129.215,312.008 C1149.664,331.555 1174.324,343.584 1208.006,343.584 z" fill="#F15D21"/>
    <path d="M1328.757,306.895 L1369.401,306.895 L1397.008,264.207 L1424.615,306.895 L1466.281,306.895 L1417.968,236.6 L1464.236,169.883 L1423.592,169.883 L1397.774,209.759 L1372.212,169.883 L1330.546,169.883 L1376.813,237.366 z" fill="#F15D21"/>
    <path d="M1501.466,336.968 L1657.244,336.968 L1657.244,296.971 L1565.521,296.971 L1599.805,270.507 C1637.095,241.637 1655.139,224.195 1655.139,189.009 L1655.139,188.408 C1655.139,149.012 1626.269,123.45 1582.663,123.45 C1545.072,123.45 1524.923,138.787 1504.173,167.056 L1536.651,193.219 C1552.289,173.973 1563.416,164.951 1579.656,164.951 C1596.196,164.951 1607.924,174.574 1607.924,192.317 C1607.924,209.76 1597.7,221.187 1571.536,242.84 L1501.466,300.279 z" fill="#F15D21"/>
    <path d="M1764.906,341.815 C1813.323,341.815 1844.9,313.547 1844.9,269.039 L1844.9,268.437 C1844.9,220.922 1812.12,201.074 1771.221,201.074 C1759.492,201.074 1751.974,202.577 1743.554,204.682 L1745.959,168.294 L1835.577,168.294 L1835.577,127.695 L1706.263,127.695 L1700.249,231.447 L1727.014,249.19 C1736.938,244.98 1748.967,241.371 1762.199,241.371 C1784.152,241.371 1799.49,251.897 1799.49,269.941 L1799.49,270.542 C1799.49,289.188 1785.957,299.713 1764.304,299.713 C1745.659,299.713 1730.021,291.293 1714.082,276.858 L1686.114,310.239 C1706.564,329.786 1731.224,341.815 1764.906,341.815 z" fill="#F15D21"/>
    <path d="M-70.785,831.572 L1129.215,831.572 L1129.215,2031.572 L-70.785,2031.572 L-70.785,831.572 z" fill="#F15D21"/>
  </g>
</svg>
