<?xml version="1.0" standalone="no"?>
<!DOCTYPE svg PUBLIC "-//W3C//DTD SVG 20010904//EN"
 "http://www.w3.org/TR/2001/REC-SVG-20010904/DTD/svg10.dtd">
<svg version="1.0" xmlns="http://www.w3.org/2000/svg"
 width="700.000000pt" height="700.000000pt" viewBox="0 0 700.000000 700.000000"
 preserveAspectRatio="xMidYMid meet">
<metadata>
Created by potrace 1.14, written by Peter Selinger 2001-2017
</metadata>
<g transform="translate(0.000000,700.000000) scale(0.100000,-0.100000)"
fill="#000000" stroke="none">
<path d="M3269 6996 c-2 -2 -44 -7 -94 -10 -49 -4 -103 -9 -120 -11 -16 -3
-48 -7 -70 -10 -397 -54 -835 -201 -1190 -400 -804 -451 -1386 -1175 -1650
-2050 -34 -111 -88 -347 -99 -426 -3 -19 -7 -51 -10 -71 -24 -159 -31 -264
-31 -493 0 -276 11 -406 54 -635 115 -617 406 -1210 821 -1674 165 -184 444
-432 626 -554 515 -345 1031 -533 1649 -599 93 -10 550 -10 645 0 697 74 1295
317 1840 746 122 96 150 122 290 261 514 512 854 1169 974 1885 15 89 19 122
36 280 8 84 6 548 -4 625 -3 25 -8 65 -11 90 -6 42 -22 151 -29 195 -52 300
-167 640 -315 935 -227 451 -510 802 -936 1159 -102 85 -345 247 -490 326 -38
21 -89 48 -112 61 -162 89 -503 215 -734 273 -127 31 -314 65 -424 76 -33 4
-71 9 -85 11 -28 6 -526 15 -531 10z m2024 -1423 c210 -212 610 -617 832 -843
l64 -65 -71 -75 c-38 -41 -108 -115 -153 -165 -46 -49 -107 -115 -137 -146
-29 -31 -91 -98 -138 -149 -47 -51 -94 -102 -106 -114 -11 -12 -54 -57 -95
-101 -152 -165 -316 -341 -384 -413 l-70 -74 0 391 0 391 -190 1 c-526 1 -562
-2 -691 -61 -201 -91 -349 -267 -401 -479 -15 -59 -17 -196 -19 -1331 -1 -902
-5 -1279 -13 -1313 -27 -114 -113 -231 -212 -289 -85 -50 -207 -72 -304 -56
-181 31 -337 181 -372 358 -10 51 -9 2572 1 2635 3 22 8 54 10 70 24 164 87
352 169 505 44 82 141 228 184 276 16 17 42 46 59 65 72 80 174 168 276 238
235 159 506 254 792 276 17 2 184 3 371 4 l340 1 0 355 c0 195 2 355 6 355 3
0 116 -111 252 -247z m-2088 -453 c6 0 -1 -10 -15 -21 -280 -229 -464 -475
-629 -842 l-21 -47 -643 2 c-724 3 -690 0 -811 83 -236 161 -268 490 -67 693
81 82 174 121 306 131 67 4 1823 6 1880 1z"/>
</g>
</svg>
