<?xml version="1.0" encoding="utf-8"?>
<!-- Generator: Adobe Illustrator 22.1.0, SVG Export Plug-In . SVG Version: 6.00 Build 0)  -->
<svg version="1.1" id="Layer_1" xmlns="http://www.w3.org/2000/svg" xmlns:xlink="http://www.w3.org/1999/xlink" x="0px" y="0px"
	 viewBox="0 0 57 57" style="enable-background:new 0 0 57 57;" xml:space="preserve">
<style type="text/css">
	.st0{fill:#F15D22;}
</style>
<g>
	<path class="st0" d="M41,29.1v-6.4h-4.9c-3.1,0-5.7,2.6-5.7,5.7v19.4c0,2-1.6,3.7-3.7,3.7c-2,0-3.7-1.6-3.7-3.7V28.5
		c0-7.2,5.9-13.1,13.1-13.1l4,0H41V9.5l9.4,9.5L41,29.1z M10.9,22.7L10.9,22.7c-2,0-3.7-1.7-3.7-3.7c0-2,1.6-3.7,3.7-3.7v0h15.3
		c-0.6,0.5-1.2,1-1.7,1.5c-1.7,1.7-2.9,3.7-3.8,5.9H10.9z M28.3,0C12.7,0,0,12.7,0,28.3c0,15.6,12.7,28.3,28.3,28.3
		s28.3-12.7,28.3-28.3C56.6,12.7,43.9,0,28.3,0"/>
</g>
</svg>
